<svg id="Layer_3" enable-background="new 0 0 64 64" height="512" viewBox="0 0 64 64" width="512" xmlns="http://www.w3.org/2000/svg"><path d="m35 23h6v12h-6z"/><path d="m27 19h6v2h-6z"/><path d="m35 19h6v2h-6z"/><path d="m49 23h4v12h-4z"/><path d="m49 55h-34v3c0 1.654 1.346 3 3 3h32.002c-.628-.836-1.002-1.875-1.002-3z"/><path d="m43 23h4v12h-4z"/><path d="m21 25v-6.477c-1.481-.994-3.198-1.523-5-1.523-2.122 0-4.071.742-5.611 1.975l6.025 6.025z"/><path d="m7 26c0 2.122.742 4.071 1.975 5.611l5.611-5.611-5.611-5.611c-1.233 1.54-1.975 3.489-1.975 5.611z"/><path d="m53 57v-16h-16v12h14v4z"/><path d="m21 33.477v-6.477h-4.586l-6.025 6.025c1.54 1.233 3.489 1.975 5.611 1.975 1.802 0 3.519-.529 5-1.523z"/><path d="m27 23h6v12h-6z"/><path d="m3 41h18v-5.202c-1.537.788-3.235 1.202-5 1.202-6.065 0-11-4.935-11-11s4.935-11 11-11c1.765 0 3.463.414 5 1.202v-3.202h38v28h2v-30h-58z"/><path d="m23 53h12v-14h20v20h-3.816c.414 1.161 1.514 2 2.816 2 1.654 0 3-1.346 3-3v-43h-34zm2-36h30v20h-30zm0 22h8v2h-8zm0 4h8v2h-8zm0 4h8v2h-8z"/><path d="m43 19h10v2h-10z"/><path d="m3 3v6h58v-6zm4 4h-2v-2h2zm4 0h-2v-2h2zm4 0h-2v-2h2z"/></svg>